<svg width="664" height="168" viewBox="0 0 166 42" fill="none" xmlns="http://www.w3.org/2000/svg">
<g clip-path="url(#clip0_139_323)">
<path d="M39.7949 1.454C37.8563 -0.484666 34.7132 -0.484666 32.7745 1.454C31.0371 3.19147 30.8581 5.8953 32.2344 7.83342L26.3387 13.7286C25.2954 13.003 24.0291 12.5773 22.6647 12.5773C21.187 12.5773 19.8237 13.0773 18.7348 13.9162L14.5939 9.77534C15.4638 8.30575 15.2675 6.3801 14.0045 5.11712C12.5083 3.62096 10.0832 3.62151 8.5876 5.11712C7.09144 6.61274 7.09144 9.03838 8.5876 10.534C9.85438 11.8008 11.7876 11.9944 13.2588 11.1153L17.4198 15.2763C16.8021 16.1369 16.3916 17.1553 16.2598 18.2583H9.84516C9.41947 15.9487 7.39675 14.1987 4.96461 14.1993C2.22282 14.1993 0 16.4221 0 19.1639C0 21.9057 2.22228 24.1285 4.96461 24.1285C7.36855 24.1285 9.37283 22.4198 9.83052 20.1514H16.3114C16.7918 22.8796 18.9924 25.0216 21.7488 25.4153V32.1505C19.4279 32.567 17.6665 34.5946 17.6665 37.0354C17.6665 39.7772 19.8893 42 22.6311 42C25.3729 42 27.5957 39.7772 27.5957 37.0354C27.5957 34.6396 25.8989 32.6407 23.6414 32.1744V25.4061C26.7373 24.9343 29.1168 22.2538 29.1168 19.0283C29.1168 17.5164 28.5941 16.1249 27.7199 15.0241L33.6026 9.14141C35.525 10.3784 38.1133 10.1571 39.7955 8.47494C41.7336 6.53628 41.7336 3.39266 39.7949 1.454ZM22.6647 23.5271C20.1843 23.5271 18.1665 21.5093 18.1665 19.0289C18.1665 16.5485 20.1843 14.5306 22.6647 14.5306C25.1452 14.5306 27.163 16.5485 27.163 19.0289C27.163 21.5093 25.1452 23.5271 22.6647 23.5271Z" fill="#FE4A3E"/>
<path d="M57.5366 26.4327C58.6097 26.8686 59.4481 26.5668 59.9511 26.3321V29.0149C59.5152 29.2832 58.878 29.518 57.9725 29.518C55.9939 29.518 54.2501 28.8808 53.1769 27.1369C52.1708 25.4601 52.1708 24.5547 52.1708 21.9389V15.4329H50.1587V12.6159H52.1708V7.38434H55.625V12.6159H59.9511V15.4329H55.625V21.9389C55.625 24.6888 55.8933 25.6949 57.5366 26.4327ZM79.6366 19.6249V29.1826H76.1825V19.9603C76.1825 16.6067 75.1428 15.1311 72.2923 15.1311C69.0729 15.1311 67.765 17.378 67.765 20.2956V29.1826H64.3108V4.03076H67.765V15.2988C68.2345 13.8232 70.3137 12.4818 72.2923 12.3476C76.7861 12.0123 79.6366 14.1921 79.6366 19.6249ZM87.9535 12.6159V29.1826H84.4993V12.6159H87.9535ZM88.1212 6.54595C88.1212 7.61909 87.2828 8.45748 86.2097 8.45748C85.17 8.45748 84.3317 7.61909 84.3317 6.54595C84.3317 5.50634 85.17 4.66794 86.2097 4.66794C87.2828 4.66794 88.1212 5.50634 88.1212 6.54595ZM99.8923 12.2806C104.654 12.2806 106.566 15.1646 106.566 17.6128V29.1826H103.112V27.3717C101.904 29.0149 99.7581 29.4844 98.4167 29.4844C94.6271 29.4844 92.1455 27.2711 92.1455 24.3199C92.1455 20.195 95.2308 18.7194 98.4167 18.7194H103.112V17.6128C103.112 16.5731 102.709 15.1311 99.8923 15.1311C98.3161 15.1311 96.874 15.9695 95.935 17.2774L93.554 15.1311C95.1302 13.3872 97.3771 12.2806 99.8923 12.2806ZM103.112 24.0181V21.5364H98.8862C96.8405 21.5364 95.3985 22.5761 95.6332 24.4541C95.8344 26.0302 97.1088 26.6674 98.8862 26.6674C102.072 26.6674 103.112 25.1583 103.112 24.0181ZM122.965 12.6159H126.419V29.4509C126.419 34.3806 122.562 38.3714 117.8 38.3714C115.319 38.3714 113.072 37.2647 111.496 35.5209L113.877 33.3746C114.816 34.716 116.224 35.5544 117.8 35.5544C120.651 35.5544 122.965 32.8045 122.965 29.4509V27.9082C121.858 28.8137 119.813 29.4844 118.203 29.4844C113.441 29.4844 109.919 25.829 109.919 20.8993C109.919 15.9695 113.441 12.2806 118.203 12.2806C119.813 12.2806 121.657 12.8842 122.965 13.8903V12.6159ZM118.538 26.6674C120.416 26.6674 122.059 25.7955 122.965 24.0181C123.434 23.1126 123.703 22.0395 123.703 20.8993C123.703 19.759 123.434 18.6859 122.965 17.7469C122.059 15.9695 120.416 15.1311 118.538 15.1311C115.688 15.1311 113.374 17.5121 113.374 20.8993C113.374 24.2528 115.688 26.6674 118.538 26.6674ZM144.059 19.0883V21.9053H132.12V19.0883H144.059ZM157.037 15.1646C154.187 15.1646 151.873 17.5457 151.873 20.9328C151.873 24.2864 154.187 26.701 157.037 26.701C159.888 26.701 162.202 24.2864 162.202 20.9328C162.202 17.5457 159.888 15.1646 157.037 15.1646ZM157.037 12.3141C161.799 12.3141 165.656 16.003 165.656 20.9328C165.656 25.8626 161.799 29.518 157.037 29.518C152.275 29.518 148.419 25.8626 148.419 20.9328C148.419 16.003 152.275 12.3141 157.037 12.3141Z" fill="black"/>
</g>
<defs>
<clipPath id="clip0_139_323">
<rect width="664" height="168" fill="white"/>
</clipPath>
</defs>
</svg>
