<svg width="182" height="39" viewBox="0 0 182 39" fill="none" xmlns="http://www.w3.org/2000/svg">
<g clip-path="url(#clip0_119_126)">
<path d="M14.6719 11.5V14.5625L5.10938 20.5312L14.6719 26.9375V30L2.17188 21.375V19.7812L14.6719 11.5ZM43.4844 9.0625V11.7188H36.2656V29.9062H33.4531V11.7188H26.2344V9.0625H43.4844ZM54.7031 14.0625C55.7656 14.0625 56.7344 14.3021 57.6094 14.7812C58.4844 15.2396 59.1823 15.9479 59.7031 16.9062C60.224 17.8438 60.4844 19.0312 60.4844 20.4688V30H57.9219L57.8906 20.7188C57.8906 19.3646 57.5885 18.3333 56.9844 17.625C56.401 16.9167 55.4948 16.5625 54.2656 16.5625C53.4323 16.5625 52.599 16.875 51.7656 17.5C50.9531 18.1042 50.2344 18.8125 49.6094 19.625V30H47.0469V7.5H49.6094V16.8438C49.9427 16.4271 50.3698 16.0104 50.8906 15.5938C51.4115 15.1562 51.9948 14.7917 52.6406 14.5C53.3073 14.2083 53.9948 14.0625 54.7031 14.0625ZM67.8281 6.875C68.4323 6.875 68.9323 7.09375 69.3281 7.53125C69.7448 7.94792 69.9531 8.4375 69.9531 9C69.9531 9.54167 69.7448 10.0312 69.3281 10.4688C68.9323 10.9062 68.4323 11.125 67.8281 11.125C67.224 11.125 66.7135 10.9062 66.2969 10.4688C65.901 10.0312 65.7031 9.54167 65.7031 9C65.7031 8.4375 65.901 7.94792 66.2969 7.53125C66.7135 7.09375 67.224 6.875 67.8281 6.875ZM69.4219 14.375V30H66.8594V16.7812H64.3906V14.375H69.4219ZM81.3906 14.0625C82.2865 14.0625 83.1927 14.2812 84.1094 14.7188C85.0469 15.1354 85.849 15.7188 86.5156 16.4688V14.375H89.0781V30H86.5156V27.3438C85.974 28.1771 85.2344 28.9062 84.2969 29.5312C83.3802 30.1562 82.3281 30.4688 81.1406 30.4688C79.8073 30.4688 78.5885 30.1354 77.4844 29.4688C76.3802 28.7812 75.4948 27.8333 74.8281 26.625C74.1823 25.4167 73.8594 24.0208 73.8594 22.4375C73.8594 20.7083 74.1823 19.2188 74.8281 17.9688C75.4948 16.7188 76.401 15.7604 77.5469 15.0938C78.6927 14.4062 79.974 14.0625 81.3906 14.0625ZM81.8594 16.5625C80.7344 16.5625 79.776 16.8438 78.9844 17.4062C78.1927 17.9688 77.5781 18.6979 77.1406 19.5938C76.724 20.4688 76.5156 21.4167 76.5156 22.4375C76.5156 23.4375 76.724 24.3646 77.1406 25.2188C77.5573 26.0521 78.1406 26.7188 78.8906 27.2188C79.6615 27.7188 80.5469 27.9688 81.5469 27.9688C82.5052 27.9688 83.3594 27.7188 84.1094 27.2188C84.8594 26.7188 85.4531 26.0312 85.8906 25.1562C86.3281 24.2604 86.5365 23.2604 86.5156 22.1562L86.4844 19.1562C85.8385 18.3438 85.1406 17.7083 84.3906 17.25C83.6615 16.7917 82.8177 16.5625 81.8594 16.5625ZM100.828 14.0625C101.724 14.0625 102.63 14.2812 103.547 14.7188C104.484 15.1354 105.286 15.7188 105.953 16.4688V14.375H108.516V29.6875C108.516 31.5417 108.141 33.0833 107.391 34.3125C106.641 35.5417 105.641 36.4583 104.391 37.0625C103.141 37.6667 101.776 37.9688 100.297 37.9688C99.3385 37.9688 98.5156 37.8542 97.8281 37.625C97.1615 37.4167 96.5885 37.1458 96.1094 36.8125C95.6302 36.5 95.1927 36.1979 94.7969 35.9062V33.1562C95.1094 33.3854 95.5156 33.6771 96.0156 34.0312C96.5365 34.4062 97.151 34.7396 97.8594 35.0312C98.5885 35.3229 99.401 35.4688 100.297 35.4688C101.318 35.4688 102.255 35.2812 103.109 34.9062C103.964 34.5312 104.651 33.9792 105.172 33.25C105.693 32.5208 105.953 31.6458 105.953 30.625V27.3438C105.411 28.1771 104.672 28.9062 103.734 29.5312C102.818 30.1562 101.766 30.4688 100.578 30.4688C99.2448 30.4688 98.026 30.1354 96.9219 29.4688C95.8177 28.7812 94.9323 27.8333 94.2656 26.625C93.6198 25.4167 93.2969 24.0208 93.2969 22.4375C93.2969 20.7083 93.6198 19.2188 94.2656 17.9688C94.9323 16.7188 95.8385 15.7604 96.9844 15.0938C98.1302 14.4062 99.4115 14.0625 100.828 14.0625ZM101.297 16.5938C100.172 16.5938 99.2135 16.875 98.4219 17.4375C97.6302 17.9792 97.0156 18.6979 96.5781 19.5938C96.1615 20.4688 95.9531 21.4167 95.9531 22.4375C95.9531 23.4375 96.1615 24.3542 96.5781 25.1875C96.9948 26.0208 97.5781 26.6875 98.3281 27.1875C99.099 27.6875 99.9844 27.9375 100.984 27.9375C101.943 27.9375 102.797 27.6875 103.547 27.1875C104.297 26.6875 104.891 26 105.328 25.125C105.766 24.25 105.974 23.2604 105.953 22.1562L105.922 19.1562C105.276 18.3438 104.578 17.7188 103.828 17.2812C103.099 16.8229 102.255 16.5938 101.297 16.5938ZM122.453 20.6875V23.5H113.047V20.6875H122.453ZM134.047 14.0625C135.63 14.0625 137.036 14.4375 138.266 15.1875C139.495 15.9375 140.453 16.9375 141.141 18.1875C141.849 19.4375 142.203 20.8021 142.203 22.2812C142.203 23.7604 141.849 25.125 141.141 26.375C140.453 27.6042 139.495 28.5938 138.266 29.3438C137.036 30.0938 135.63 30.4688 134.047 30.4688C132.464 30.4688 131.057 30.0938 129.828 29.3438C128.599 28.5938 127.63 27.6042 126.922 26.375C126.234 25.125 125.891 23.7604 125.891 22.2812C125.891 20.8021 126.234 19.4375 126.922 18.1875C127.63 16.9375 128.599 15.9375 129.828 15.1875C131.057 14.4375 132.464 14.0625 134.047 14.0625ZM134.047 16.5625C132.943 16.5625 131.974 16.8333 131.141 17.375C130.307 17.8958 129.661 18.5938 129.203 19.4688C128.766 20.3229 128.547 21.2604 128.547 22.2812C128.547 23.2812 128.766 24.2188 129.203 25.0938C129.661 25.9479 130.307 26.6458 131.141 27.1875C131.974 27.7083 132.943 27.9688 134.047 27.9688C135.172 27.9688 136.141 27.7083 136.953 27.1875C137.786 26.6458 138.422 25.9479 138.859 25.0938C139.318 24.2188 139.547 23.2812 139.547 22.2812C139.547 21.2604 139.318 20.3229 138.859 19.4688C138.422 18.5938 137.786 17.8958 136.953 17.375C136.141 16.8333 135.172 16.5625 134.047 16.5625ZM164.828 7.96875L156.516 36.25H154.391L162.609 7.96875H164.828ZM167.328 11.5L179.828 19.7812V21.375L167.328 30V26.9375L176.891 20.5312L167.328 14.5625V11.5Z" fill="white"/>
</g>
<defs>
<clipPath id="clip0_119_126">
<rect width="182" height="39" fill="white"/>
</clipPath>
</defs>
</svg>
