<svg width="32" height="32" viewBox="0 0 32 32" fill="none" xmlns="http://www.w3.org/2000/svg">
<path fill-rule="evenodd" clip-rule="evenodd" d="M5.33333 3C2.38781 3 0 5.45603 0 8.48571V23.1142C0 26.144 2.38781 28.6 5.33333 28.6H26.6667C29.6122 28.6 32 26.144 32 23.1142V8.48571C32 5.45603 29.6122 3 26.6667 3H5.33333ZM8.9995 9.75061C8.30949 9.19859 7.30262 9.31046 6.75061 10.0005C6.19859 10.6905 6.31046 11.6974 7.0005 12.2494L15.0005 18.6494L16 19.449L16.9995 18.6494L24.9995 12.2494C25.6896 11.6974 25.8014 10.6905 25.2494 10.0005C24.6974 9.31046 23.6906 9.19859 23.0005 9.75061L16 15.351L8.9995 9.75061Z" fill="black"/>
</svg>
