<svg width="33" height="32" viewBox="0 0 33 32" fill="none" xmlns="http://www.w3.org/2000/svg">
<g clip-path="url(#clip0_68_978)">
<path d="M16.5 0C25.34 0 32.5 7.16 32.5 16C32.4991 19.3524 31.447 22.6201 29.4917 25.3432C27.5364 28.0664 24.7763 30.1077 21.6 31.18C20.8 31.34 20.5 30.84 20.5 30.42C20.5 29.88 20.52 28.16 20.52 26.02C20.52 24.52 20.02 23.56 19.44 23.06C23 22.66 26.74 21.3 26.74 15.16C26.74 13.4 26.12 11.98 25.1 10.86C25.26 10.46 25.82 8.82 24.94 6.62C24.94 6.62 23.6 6.18 20.54 8.26C19.26 7.9 17.9 7.72 16.54 7.72C15.18 7.72 13.82 7.9 12.54 8.26C9.48 6.2 8.14 6.62 8.14 6.62C7.26 8.82 7.82 10.46 7.98 10.86C6.96 11.98 6.34 13.42 6.34 15.16C6.34 21.28 10.06 22.66 13.62 23.06C13.16 23.46 12.74 24.16 12.6 25.2C11.68 25.62 9.38 26.3 7.94 23.88C7.64 23.4 6.74 22.22 5.48 22.24C4.14 22.26 4.94 23 5.5 23.3C6.18 23.68 6.96 25.1 7.14 25.56C7.46 26.46 8.5 28.18 12.52 27.44C12.52 28.78 12.54 30.04 12.54 30.42C12.54 30.84 12.24 31.32 11.44 31.18C8.25328 30.1193 5.48147 28.082 3.51778 25.3573C1.55409 22.6325 0.498239 19.3586 0.500002 16C0.500002 7.16 7.66 0 16.5 0Z" fill="white"/>
</g>
<defs>
<clipPath id="clip0_68_978">
<rect width="32" height="32" fill="white" transform="translate(0.5)"/>
</clipPath>
</defs>
</svg>
