<svg width="33" height="32" viewBox="0 0 33 32" fill="none" xmlns="http://www.w3.org/2000/svg">
<path d="M27.8333 2.66675H5.16663C4.63619 2.66675 4.12749 2.87746 3.75241 3.25253C3.37734 3.62761 3.16663 4.13631 3.16663 4.66675V27.3334C3.16663 27.8638 3.37734 28.3726 3.75241 28.7476C4.12749 29.1227 4.63619 29.3334 5.16663 29.3334H27.8333C28.3637 29.3334 28.8724 29.1227 29.2475 28.7476C29.6226 28.3726 29.8333 27.8638 29.8333 27.3334V4.66675C29.8333 4.13631 29.6226 3.62761 29.2475 3.25253C28.8724 2.87746 28.3637 2.66675 27.8333 2.66675ZM11.1666 25.3334H7.16663V13.3334H11.1666V25.3334ZM9.16663 11.0001C8.7082 10.987 8.2638 10.8391 7.88896 10.5748C7.51412 10.3106 7.22545 9.9418 7.05902 9.51445C6.89259 9.0871 6.85579 8.62019 6.95321 8.17204C7.05063 7.7239 7.27796 7.3144 7.60678 6.99471C7.9356 6.67502 8.35134 6.45933 8.80205 6.37456C9.25276 6.2898 9.71845 6.33974 10.1409 6.51814C10.5634 6.69653 10.924 6.99548 11.1775 7.37761C11.4311 7.75975 11.5664 8.20814 11.5666 8.66675C11.5561 9.29388 11.2977 9.89135 10.848 10.3286C10.3983 10.7658 9.79381 11.0072 9.16663 11.0001ZM25.8333 25.3334H21.8333V19.0134C21.8333 17.1201 21.0333 16.4401 19.9933 16.4401C19.6884 16.4604 19.3905 16.5407 19.1167 16.6765C18.8429 16.8123 18.5986 17.0008 18.3979 17.2312C18.1972 17.4617 18.044 17.7295 17.9471 18.0193C17.8502 18.3091 17.8115 18.6153 17.8333 18.9201C17.8267 18.9821 17.8267 19.0447 17.8333 19.1067V25.3334H13.8333V13.3334H17.7V15.0667C18.09 14.4734 18.6259 13.9902 19.2562 13.6633C19.8866 13.3365 20.5903 13.177 21.3 13.2001C23.3666 13.2001 25.78 14.3467 25.78 18.0801L25.8333 25.3334Z" fill="black"/>
</svg>
